<svg id="gradient-dark" xmlns="http://www.w3.org/2000/svg" xmlns:xlink="http://www.w3.org/1999/xlink" viewBox="0 0 417.58 166.18">
	<defs>
		<linearGradient id="linear-gradient" x1="94.12" y1="205.07" x2="94.12" y2="5.8" gradientUnits="userSpaceOnUse">
			<stop offset="0.09" stop-color="#ff5f11"/>
			<stop offset="0.78" stop-color="#ff910f"/>
		</linearGradient>
		<linearGradient id="linear-gradient-2" x1="235.27" y1="205.07" x2="235.27" y2="5.8" xlink:href="#linear-gradient"/>
		<linearGradient id="linear-gradient-3" x1="349.66" y1="205.07" x2="349.66" y2="5.8" xlink:href="#linear-gradient"/>
	</defs>
	<title>primary-madwire-logo-dark-text</title>
	<path d="M188.23,49a62.95,62.95,0,0,0-62.36.19A63.55,63.55,0,0,0,110.25,61.9,63,63,0,0,0,32.32,49V40.87H0v125H32.32V97.27a31.19,31.19,0,0,1,61.92,3.2v65.45h31.63V110.27c.14-1.28.22-2.58.28-3.88,0-.89.07-1.79.07-2.69,0-1.54-.08-3.06-.19-4.57a31.08,31.08,0,0,1,43.67-25.3A71.94,71.94,0,0,1,178.75,59,73,73,0,0,1,188.23,49Z" style="fill:url(#linear-gradient)"/>
	<path d="M296.24,156c-1.75-1.6-3.47-3.33-5.1-5.15-.64-.72-1.27-1.47-1.89-2.23-.93-1.13-1.85-2.29-2.72-3.49l-.15-.19a70.2,70.2,0,0,1-11.2-23.9,69.19,69.19,0,0,1-1.6-7.83c0-.14-.06-.28-.08-.42-.06-.43-.11-.87-.16-1.3l0-.37c0-.36-.09-.71-.12-1.07s-.09-1-.12-1.57l-.05-.6c0-.3-.05-.61-.07-.92-.07-1.31-.11-2.62-.11-4,0-1.6.07-3.24.2-5.18,0-.45.07-1,.12-1.47l.17-1.64c.13-1.13.34-2.25.52-3.37a71.85,71.85,0,0,1,1.77-8.11A71,71,0,0,1,286.15,61.4l.61-.84c.83-1.13,1.7-2.22,2.59-3.29.51-.63,1-1.25,1.57-1.85,1.22-1.38,2.51-2.73,3.83-4l0,0,1.2-1.11c.74-.68,1.51-1.33,2.28-2V30.16H265.92V48.35a63,63,0,0,0-70,5.85,62.2,62.2,0,0,0-18.6,24.43,62.49,62.49,0,0,0-5.09,24.57v.1a63,63,0,0,0,63,62.88c2,0,4.05-.13,6-.32a62.71,62.71,0,0,0,24.6-7.61v7.66h32.23v-8.24c-.64-.55-1.29-1.09-1.9-1.65Zm-41.49-29.88a31.18,31.18,0,1,1,11.17-29.35V107A31.22,31.22,0,0,1,254.75,126.14Z" style="fill:url(#linear-gradient-2)"/>
	<path d="M415.59,113.52l-9.9-.85L374.53,110l-13.63-1.17-.12,0,.43.85,6.39,12.86c-.22.26-.44.51-.68.76s-.59.57-.89.86a31.13,31.13,0,0,1-41.59,1.33l-.91-.79c-.29-.26-.58-.54-.86-.81a32.44,32.44,0,0,1-2.7-3c-.61-.77-1.18-1.58-1.72-2.42A30.91,30.91,0,0,1,313.63,106a.59.59,0,0,1,0-.13c0-.12,0-.23-.05-.35,0-.39-.09-.77-.12-1.16a.41.41,0,0,0,0-.11c-.05-.65-.08-1.3-.1-2v-.1c0-.18,0-.36,0-.53,0-1,.05-1.91.13-2.85q.07-.76.18-1.5a30.91,30.91,0,0,1,4-11.54,31.86,31.86,0,0,1,2.25-3.29H320v-.06c.21-.26.41-.52.62-.77l.69-.8a31.18,31.18,0,0,1,47.35,1c.22.27.41.55.62.82h0l.67.89a31,31,0,0,1,5.37,13,31.47,31.47,0,0,1,.42,5.08c0,.6,0,1.18-.08,1.77l3.9.34,28.07,2.46v-2.12c0-.34,0-.69,0-1v0h0c0-.35,0-.69,0-1V0a62.83,62.83,0,0,0-31.8,46.79c0,.26-.07.51-.1.76s-.08.48-.1.72l-.31-.18-.33-.16a62.74,62.74,0,0,0-61.33.42,63.78,63.78,0,0,0-6.35,4.11l-.11.09A63.59,63.59,0,0,0,302,56.81h0a1.21,1.21,0,0,1-.16-.16l-.21-.22.21.23a1.07,1.07,0,0,0,.14.16c-1.31,1.21-2.53,2.5-3.73,3.81-.22.24-.47.45-.69.7a63.08,63.08,0,0,0-4,5h0l-.12-.14-.32-.36.31.37.12.14a62.4,62.4,0,0,0-4.17,6.77c-.58,1.06-1.18,2.1-1.7,3.2a62.27,62.27,0,0,0-5.49,19.42c0,.11,0,.23-.05.34l-.09,1a.38.38,0,0,0,0,.1c0,.43-.07.86-.1,1.3-.11,1.49-.18,3-.18,4.51h0v0c0,1.16,0,2.31.1,3.46,0,.35.06.7.08,1.05,0,.56.07,1.13.13,1.68s.1.82.14,1.23l.15,1.15a62.31,62.31,0,0,0,5.32,18c.49,1,1.07,2,1.62,3a62.09,62.09,0,0,0,4.44,7.2l0,0a60.87,60.87,0,0,0,4,5l.37.38c1.31,1.43,2.66,2.82,4.09,4.13l0,0c-.07.09-.07.09,0,0l0,0a60.93,60.93,0,0,0,4.81,4,1.84,1.84,0,0,0,.22.17,62,62,0,0,0,6.35,4.11,64.54,64.54,0,0,0,6.34,3.16,63.12,63.12,0,0,0,55.32-2.9V158a62.44,62.44,0,0,0,7.49-4.93l5.7,11.45.06-.11.26-.46,26.79-46.78,2-3.47Z" style="fill:url(#linear-gradient-3)"/>
</svg>